<svg xmlns="http://www.w3.org/2000/svg" width="32" height="32" viewBox="0 0 32 32" role="img" aria-label="KGEN">
  <defs>
    <radialGradient id="bg" cx="50%" cy="42%" r="70%">
      <stop offset="0%" stop-color="#1b1406"/>
      <stop offset="55%" stop-color="#080808"/>
      <stop offset="100%" stop-color="#000000"/>
    </radialGradient>
    <linearGradient id="gold" x1="7" y1="5" x2="25" y2="27">
      <stop offset="0%" stop-color="#fff1a8"/>
      <stop offset="35%" stop-color="#f6c34a"/>
      <stop offset="70%" stop-color="#b87312"/>
      <stop offset="100%" stop-color="#ffe07a"/>
    </linearGradient>
    <linearGradient id="darkGold" x1="10" y1="8" x2="22" y2="24">
      <stop offset="0%" stop-color="#f4c75c"/>
      <stop offset="100%" stop-color="#8a520b"/>
    </linearGradient>
    <filter id="glow" x="-40%" y="-40%" width="180%" height="180%">
      <feGaussianBlur stdDeviation="0.75" result="blur"/>
      <feMerge>
        <feMergeNode in="blur"/>
        <feMergeNode in="SourceGraphic"/>
      </feMerge>
    </filter>
  </defs>

  <circle cx="16" cy="16" r="15" fill="url(#bg)"/>
  <circle cx="16" cy="16" r="14.25" fill="none" stroke="url(#gold)" stroke-width="1.6"/>
  <circle cx="16" cy="16" r="11.35" fill="none" stroke="#9f6a16" stroke-width="0.75" opacity="0.95"/>

  <ellipse cx="16" cy="16" rx="12.5" ry="4.7" fill="none" stroke="#dca83a" stroke-width="0.65" opacity="0.8" transform="rotate(-23 16 16)"/>
  <ellipse cx="16" cy="16" rx="12.5" ry="4.7" fill="none" stroke="#ffe082" stroke-width="0.45" opacity="0.65" transform="rotate(23 16 16)"/>

  <polygon points="16,5.8 24.4,10.6 24.4,21.4 16,26.2 7.6,21.4 7.6,10.6"
           fill="#0b0b0b" stroke="url(#gold)" stroke-width="1.15"/>

  <path d="M12.1 9.1h3.15v5.15l4.6-5.15h3.55l-5.05 5.55 5.45 8.25h-3.75l-3.82-5.95-.98 1.08v4.87H12.1z"
        fill="url(#gold)" filter="url(#glow)"/>

  <circle cx="9.1" cy="9.2" r="0.85" fill="#ffe58a"/>
  <circle cx="23.2" cy="22.9" r="0.7" fill="#f7c85a"/>
  <path d="M16 2.4l.55 1.25 1.25.55-1.25.55L16 6l-.55-1.25-1.25-.55 1.25-.55z" fill="#fff0a1"/>
</svg>
